<svg width="22" height="28" viewBox="0 0 22 28" fill="none" xmlns="http://www.w3.org/2000/svg">
<path d="M21 11.2273C21 19.1818 11 26 11 26C11 26 1 19.1818 1 11.2273C1 8.51483 2.05357 5.91348 3.92893 3.9955C5.8043 2.07751 8.34784 1 11 1C13.6522 1 16.1957 2.07751 18.0711 3.9955C19.9464 5.91348 21 8.51483 21 11.2273Z" stroke="#383838" stroke-width="2" stroke-linecap="round"/>
<path d="M11 14.75C13.0711 14.75 14.75 13.0711 14.75 11C14.75 8.92893 13.0711 7.25 11 7.25C8.92893 7.25 7.25 8.92893 7.25 11C7.25 13.0711 8.92893 14.75 11 14.75Z" stroke="#383838" stroke-width="2" stroke-linecap="round"/>
</svg>
